<svg xmlns="http://www.w3.org/2000/svg" viewBox="0 0 525.14 412.29"><defs><style>.cls-1{fill:#37231b;}.cls-2{fill:#fbea5e;}.cls-3{fill:#f6e763;}.cls-4{fill:#f8ea62;}.cls-5{fill:#fffefe;}.cls-6{fill:#fefcfb;}.cls-7{fill:#38281e;}.cls-8{fill:#392724;}.cls-9{fill:#382921;}.cls-10{fill:#3e2d27;}.cls-11{fill:#3c2d25;}.cls-12{fill:#ec655a;}.cls-13{fill:#38261d;}.cls-14{fill:#e9645d;}.cls-15{fill:#493c35;}.cls-16{fill:#d6cac3;}</style></defs><title>Asset 1</title><g id="Layer_2" data-name="Layer 2"><g id="Layer_1-2" data-name="Layer 1"><path class="cls-1" d="M243.47,411.93c-39.36,1.28-78.81-.65-117.27-8C54.77,390.15,19,321.74,43.09,248.33c14.7-44.89,42.3-79.7,83.81-102.79,8.84-4.91,11.59-7.71,7.27-19.85-11.68-32.83-6.63-65.6,13.69-94.23C163.12,10,186.93,10,210.39,12.16c44.26,4,86.2,17.9,128.43,30.45,10.71,3.18,20.67,8,29.05,16,25.66,24.34,31.14,69.2,8.75,96.31-11,13.36-7,19.82,2.34,30.7,35.43,41.39,49.82,89.58,39,143.36-9.14,45.24-42.13,66.2-84.22,76.36C304,412.5,273.75,412.46,243.47,411.93Z"/><path class="cls-2" d="M469,0c5,19.55,16.19,32,37.32,41.92-26.13,4-33.2,21-37.73,44.82C464,62.65,451.25,51,432.23,40.84,453.63,33.89,461.66,17.37,469,0Z"/><path class="cls-3" d="M22.84,56.76c3.23,17,12.73,26.11,24.82,35.25-12.45,8.16-22.86,17.24-24.25,33.25-5.09-10.42-7.3-21.81-18-27-8.23-4-5.79-7.65-.65-12.07C13.29,78.81,20.24,70.3,22.84,56.76Z"/><path class="cls-4" d="M512.87,178.34c-5.42-10.44-22.39-17.45-5.55-31.46,2.91-2.42,3.94-9.09,10.11-3.7C532.73,156.53,522.05,166.65,512.87,178.34Z"/><path class="cls-5" d="M242.16,398.43c-34-1.82-70.61-1.43-106.66-7.76-61.63-10.81-96.22-61-82.75-121.77,11.41-51.45,40.62-90.29,88.05-114.82,8.54-4.42,16-5.86,25.37-2,15.62,6.42,32.35,8.92,49.13,10.27,12.94,1,25.38,2.23,35.28,12.54a15.21,15.21,0,0,0,18.77,2.83c25.74-14.21,48.36-.92,73.07,5.2,31.87,7.89,42.4,31.9,52.68,56.47,12.06,28.86,15.86,59.4,7.5,90.47-6.7,24.88-21.79,42.11-45.64,52.29C320.87,397.55,282.81,398,242.16,398.43Z"/><path class="cls-6" d="M353.27,172.39c-18.95-16.82-43-9.78-63.65-16.21-3.14-1-7.9.35-9.73-1.52-17.47-17.85-15.45-.36-17,13.14-18.05-26.69-44.87-17.46-67.21-21.75-49.55-9.51-64-30.15-50-79,9.9-34.62,24.05-45.21,59.66-42.24,47.77,4,93.58,17.53,138.2,33.83,41.69,15.23,43.53,68.53,17.05,92.84C353.69,157.73,357.86,165.29,353.27,172.39Z"/><path class="cls-7" d="M251.71,276.16c-13.09.11-19.49-10.34-26.54-19.61-2.46-3.24-.27-8.39,2.19-8.7,11.34-1.41,18.78-8.3,26.23-15.79,1.18-1.19,4.86-1.72,6-.82,9.06,7.13,14.76,19.09,16.22,28C277.49,269.38,263.81,274.86,251.71,276.16Z"/><path class="cls-8" d="M234.21,318.38c-10.57-3.05-16.85,2.63-23.85,5.48-5.28,2.16-10.3,2.34-12.89-3.41-2.41-5.33,2.06-7.8,5.85-10.41,15.45-10.65,32.88-13.26,40-4.49,11.13,13.73,3,26.71-4.75,38.12-4.65,6.88-8.68,22-19.53,15.13-13-8.24,3.65-15.18,6.2-23C227.09,330.15,230.7,325.05,234.21,318.38Z"/><path class="cls-9" d="M267.6,324.08c-.05-18.18,12-26.47,28.88-19.51a61.94,61.94,0,0,1,14.45,8.31c4.62,3.62,11.2,7.9,5.57,14.95-4.87,6.09-9.91,1.91-14.5-1.64a53.93,53.93,0,0,0-8.37-5.58c-2.35-1.2-5.63-2.89-7.55-2.09-3.69,1.55-2.2,5.58-2,8.85.44,8.18,4.91,14.82,8.36,21.79,2.59,5.21,1.06,8.77-3.38,11.24-4.26,2.38-7.14-.19-9.91-3.53C273.71,350.31,267.63,333.69,267.6,324.08Z"/><path class="cls-10" d="M176.92,250.41c-10.92-2.19-19.93-7.49-19.29-20.48.56-11.23,8.64-17.11,19.27-16.53,11.77.65,20.36,7,19.76,20.1C196.14,245,188.24,249.57,176.92,250.41Z"/><path class="cls-11" d="M329.07,243.77c10.42,1.39,18.88,6.24,19.11,18.4.23,11.87-8.43,17-18.61,17-11.82,0-21-6.74-20.66-19.17C309.19,249.22,317.49,243.91,329.07,243.77Z"/><path class="cls-12" d="M235.45,40.5c11-5.3,19.71-2,28,.2,23.26,6.07,46.26,13.12,69.44,19.47A41,41,0,0,1,350.26,70c5.45,5.12,15.18,9.71,11.34,18.55-3.4,7.82-13,3.57-19.72,3.55-25-.06-48.86-2.56-66.26-24.82C266,54.9,247.57,53.79,235.45,40.5Z"/><path class="cls-13" d="M343.57,114.82c-60.86-3.81-119.35-18.17-176-40.14-5.26-2-13.84-4.38-10.44-12.39,4.24-10,11.43-2.5,17-.34C230.3,83.75,288.14,98,348.63,100.25c5.76.21,14.18-3.32,14.19,6.31,0,8.13-8.29,7.4-14.2,8.22A37,37,0,0,1,343.57,114.82Z"/><path class="cls-14" d="M188.36,30.73c7.53-1,15.24.41,21.06,4.29,15.9,10.59,33.15,18.46,49.89,27.37,5,2.68,12.27,6.84,9.43,14-2.77,6.94-10,2.89-15,1.85a402.9,402.9,0,0,1-76.58-24.31c-6-2.58-16.25-3.9-13.62-13.77,2.09-7.88,10.57-9,18.09-9.38C183.89,30.64,186.13,30.73,188.36,30.73Z"/><path class="cls-15" d="M305.11,135.32c5.05,1.33,13.45-1.89,13.53,7.57,0,4.68-5,6.08-8.88,4.29-5.57-2.55-15.6,2.54-16.5-6.87C292.57,133.17,300.22,135.61,305.11,135.32Z"/><path class="cls-16" d="M332.41,256.26c-.89,4.88-3.81,6.51-7.23,6.78-4.25.33-6.05-2.73-5.57-6.37.45-3.43,2.68-6.19,6.66-6.15C330.5,250.56,331.37,253.94,332.41,256.26Z"/></g></g></svg>